# xmcd
#
# Track frame offsets:
#	150
#	855
#	19173
#	33556
#	49828
#	63050
#	69820
#	91314
#	110070
#	129770
#	135287
#	154482
#	174863
#	192694
#	207949
#	218105
#	230752
#	245488
#
# Disc length: 3595 seconds
#
# Revision: 3
# Processed by: cddbd v1.5.1PL2 Copyright (c) Steve Scherf et al.
# Submitted via: EasyCDDAExtractor 9.1.3.1
#
DISCID=ee0e0912
DTITLE=Blaze Foley - Oval Room
DYEAR=2004
DGENRE=Country
TTITLE0=Introduction
TTITLE1=Oval Room
TTITLE2=My Reasons Why
TTITLE3=WW III
TTITLE4=Rainbows And Ridges
TTITLE5=Wouldn't That Be Nice
TTITLE6=Cold Cold World
TTITLE7=For Anything Less
TTITLE8=Springtime In Uganda
TTITLE9=20 Years Introduction
TTITLE10=Someday
TTITLE11=Lovin' You
TTITLE12=Blaze Foley's 113Th Wet Dream
TTITLE13=Big Cheeseburgers And Good French Fries
TTITLE14=Ain't Got No Sweet Thing
TTITLE15=Down Here Where I Am
TTITLE16=No Goodwill Stores In Waikiki
TTITLE17=Long Gone
EXTD=
EXTT0=
EXTT1=
EXTT2=
EXTT3=
EXTT4=
EXTT5=
EXTT6=
EXTT7=
EXTT8=
EXTT9=
EXTT10=
EXTT11=
EXTT12=
EXTT13=
EXTT14=
EXTT15=
EXTT16=
EXTT17=
PLAYORDER=
